<svg xmlns="http://www.w3.org/2000/svg" xmlns:svg="http://www.w3.org/2000/svg" xmlns:xlink="http://www.w3.org/1999/xlink" id="Layer_1" width="32" height="32" x="0" y="0" enable-background="new -.5 -.5 32 32" version="1.1" viewBox="-0.5 -0.5 32 32" xml:space="preserve"><g><circle id="path4142" cx="15.508" cy="15.502" r="15.506" fill="#FFF"/><g id="BCN_1_" transform="matrix(0.14128721,0,0,0.14128721,-0.04069072,-0.04068072)"><path id="path4" fill="#333" d="M126.797,113.298c-11.806,0-21.8,0-27.502,0v34.11 c8.495,0,20.3,0,27.606,0c12.4,0,25.609-4.396,25.609-15.503C152.613,120.901,145.106,113.298,126.797,113.298z"/><path id="path6" fill="#333" d="M143.503,84.382c0-10.703-10.002-15.407-19.803-15.407 c-6.905,0-18.31,0-24.316,0v31.515c6.304,0,17.114,0,23.722,0C132.907,100.49,143.503,95.092,143.503,84.382z"/><path id="path8" fill="#333" d="M110.091-3.251c-62.615,0-113.341,50.72-113.341,113.245 s50.726,113.245,113.245,113.245s113.245-50.72,113.245-113.245C223.335,47.469,172.623-3.251,110.091-3.251z M128.207,166.015 c-12.006,0-49.026,0-49.026,0v-29.009H49.069v-14.709H79.18v-19.606H49.069V87.99H79.18V53.472c0,0,41.513,0,52.931,0 c18.807,0,30.799,15.808,30.799,28.111c0,12.407-11.398,19.412-11.398,19.412s19.602,6.501,19.602,29.403 C171.219,153.407,151.403,166.015,128.207,166.015z"/></g></g></svg>