<svg xmlns="http://www.w3.org/2000/svg" xmlns:svg="http://www.w3.org/2000/svg" xmlns:xlink="http://www.w3.org/1999/xlink" id="Layer_1" width="32" height="32" x="0" y="0" enable-background="new -.5 -.5 32 32" version="1.1" viewBox="-0.5 -0.5 32 32" xml:space="preserve"><circle id="path4746" cx="15.5" cy="15.5" r="15.5" fill="#FFF"/><g id="DOGE_1_" transform="matrix(0.14083453,0,0,0.14083453,0,-2.7978516e-6)"><path id="path4" fill="#F3AE50" d="M112.786,71.321c-6.067,0-16.236,0-16.236,0v31.997h25.538 v13.397H96.55v32.008c0,0,12.651,0,17.023,0c4.375,0,35.919,0.485,35.87-37.236C149.395,73.761,118.85,71.321,112.786,71.321z"/><path id="path6" fill="#F3AE50" d="M110.058-3.55C47.315-3.55-3.55,47.315-3.55,110.058 c0,62.74,50.865,113.608,113.608,113.608c62.74,0,113.608-50.868,113.608-113.608C223.666,47.315,172.798-3.55,110.058-3.55z M114.523,171.418H73.377v-54.703H58.874v-13.393h14.503V48.618c0,0,26.956,0,35.312,0c8.352,0,63.679-1.734,63.679,62.428 C172.368,176.265,114.523,171.418,114.523,171.418z"/></g></svg>