<svg xmlns="http://www.w3.org/2000/svg" xmlns:svg="http://www.w3.org/2000/svg" xmlns:xlink="http://www.w3.org/1999/xlink" id="Layer_1" width="32" height="32" x="0" y="0" enable-background="new -.5 -.5 32 32" version="1.1" viewBox="-0.5 -0.5 32 32" xml:space="preserve"><circle id="path4776" cx="15.5" cy="15.5" r="15.5" fill="#FFF"/><path id="path4765" fill="#1C75BC" d="M15.5-0.5	c-8.836,0-16,7.165-16,16c0,8.835,7.164,16,16,16s16-7.164,16-16C31.5,6.665,24.336-0.5,15.5-0.5z M9.279,9.052h7.843	c7.456,0,8.178,0.043,8.812,1.125c0.253,0.431,0.455,0.954,0.295,1.662l-2.349,8.566c-0.375,1.144-1.376,1.664-2.528,1.646	l-8.369,0.002l-2.433,0.001l-5.54,0.001l1.04-3.171h13.68l2.118-6.915H8.349L9.279,9.052L9.279,9.052z M13.492,14.115l-1.071,2.977	H4.444l1.027-2.977H13.492z"/></svg>