<svg xmlns="http://www.w3.org/2000/svg" xmlns:svg="http://www.w3.org/2000/svg" xmlns:xlink="http://www.w3.org/1999/xlink" id="Layer_1" width="32" height="32" x="0" y="0" enable-background="new -.5 -.5 32 32" version="1.1" viewBox="-0.5 -0.5 32 32" xml:space="preserve"><circle id="path4756" cx="15.5" cy="15.5" r="15.5" fill="#FFF" fill-opacity=".996"/><g id="KORE" transform="matrix(0.14113392,0,0,0.14113392,-0.00592762,-0.00591762)"><path id="path4" fill="#DE4123" fill-opacity=".996" d="M97.713,90.717l35.874-37.936 c-7.279-3.017-15.25-4.688-23.609-4.688c-8.642,0-16.866,1.782-24.332,4.992h17.15L97.713,90.717z"/><path id="path6" fill="#DE4123" fill-opacity=".996" d="M81.29,63.431l1.201-8.871 c-20.26,10.106-34.182,31.02-34.182,55.2c0,18.243,7.926,34.635,20.516,45.921l1.204-8.905 c-9.016-9.715-14.548-22.709-14.548-37.015C55.48,90.188,65.797,73.038,81.29,63.431z"/><path id="path8" fill="#DE4123" fill-opacity=".996" d="M122.46,90.319l-11.801,12.666 l14.984,23.772c4.588-4.221,7.473-10.268,7.473-16.997C133.116,101.584,128.86,94.426,122.46,90.319z"/><path id="path10" fill="#DE4123" fill-opacity=".996" d="M143.315,109.759 c0,10.369-4.747,19.613-12.164,25.723l4.871,7.736c9.964-7.764,16.385-19.852,16.385-33.459c0-13.742-6.546-25.93-16.676-33.687 l-6.234,6.691C137.863,88.821,143.315,98.643,143.315,109.759z"/><path id="path12" fill="#DE4123" fill-opacity=".996" d="M148.899,61.936l-4.906,5.266 c12.483,9.985,20.481,25.332,20.481,42.558c0,17.904-8.649,33.791-21.983,43.72l3.84,6.082 c15.34-11.216,25.311-29.338,25.311-49.802C171.643,90.465,162.779,73.246,148.899,61.936L148.899,61.936z"/><path id="path14" fill="#DE4123" fill-opacity=".996" d="M67.544,109.759 c0,7.096,1.751,13.78,4.83,19.661l6.563-48.553C71.879,88.444,67.544,98.588,67.544,109.759z"/><path id="path16" fill="#DE4123" fill-opacity=".996" d="M109.867-3.501 c-62.61,0-113.367,50.757-113.367,113.367c0,62.607,50.757,113.367,113.367,113.367c62.607,0,113.367-50.761,113.367-113.367 C223.234,47.256,172.473-3.501,109.867-3.501z M109.977,184.022c-41.011,0-74.259-33.248-74.259-74.262 c0-41.011,33.248-74.259,74.259-74.259s74.259,33.248,74.259,74.259C184.236,150.774,150.989,184.022,109.977,184.022z"/><path id="path18" fill="#DE4123" fill-opacity=".996" d="M95.163,113.562l-0.529-0.062 l-6.438,47.654H75.896c9.763,6.49,21.481,10.275,34.081,10.275c12.607,0,24.315-3.785,34.078-10.275h-18.89L95.163,113.562z"/></g></svg>