<svg xmlns="http://www.w3.org/2000/svg" xmlns:svg="http://www.w3.org/2000/svg" xmlns:xlink="http://www.w3.org/1999/xlink" id="Layer_1" width="32" height="32" x="0" y="0" enable-background="new -.5 -.5 32 32" version="1.1" viewBox="-0.5 -0.5 32 32" xml:space="preserve"><circle id="path9934" cx="15.5" cy="15.5" r="15.5" fill="#FFF"/><path id="MAID_1_" fill="#5593D7" d="M15.62-0.5c-8.836,0-16,7.164-16,16c0,8.836,7.164,16,16,16	c8.837,0,16-7.164,16-16C31.62,6.664,24.457-0.5,15.62-0.5L15.62-0.5z M18.617,24.498c-2.318-1.367-10.213-6.035-11.464-6.99	c-1.371-1.044-1.256-3.809-1.234-4.181l10.71,6.353l-0.005-5.183l1.993-1.184V24.498L18.617,24.498z M22.567,20.484	c0,2.636-3.097,4.283-3.288,4.382V12.15l-4.258,2.508l-2.042-1.174l9.588-5.394C22.567,10.538,22.567,18.21,22.567,20.484z M22.567,7.331l-10.926,6.146l4.323,2.498l0.002,2.542L6.529,12.92c1.737-1.037,6.804-4.061,9.828-5.866	c3.693-2.205,6.21,0.275,6.21,0.275V7.331L22.567,7.331z"/></svg>