<svg xmlns="http://www.w3.org/2000/svg" xmlns:svg="http://www.w3.org/2000/svg" xmlns:xlink="http://www.w3.org/1999/xlink" id="Layer_1" width="32" height="32" x="0" y="0" enable-background="new -.5 -.5 32 32" version="1.1" viewBox="-0.5 -0.5 32 32" xml:space="preserve"><circle id="path4136" cx="15.5" cy="15.5" r="15.5" fill="#FFF"/><path id="MSC_alt" fill="#369" d="M15.5-0.5c-8.836,0-16,7.164-16,16c0,8.836,7.164,16,16,16	c8.836,0,16-7.164,16-16C31.5,6.664,24.336-0.5,15.5-0.5z M10.472,19.811l-5.105,1.113l7.022-13.553l2.034,4.527	c-2.566,0.514-4.499,2.778-4.499,5.495C9.925,18.259,10.121,19.078,10.472,19.811z M15.529,21.307c-2.162,0-3.915-1.752-3.915-3.914	c0-2.162,1.753-3.915,3.915-3.915c2.162,0,3.914,1.753,3.914,3.915C19.443,19.555,17.691,21.307,15.529,21.307z M20.582,19.822	c0.354-0.734,0.552-1.559,0.552-2.43c0-2.698-1.907-4.951-4.446-5.484L18.82,7.37l6.812,13.554L20.582,19.822z"/></svg>