<svg xmlns="http://www.w3.org/2000/svg" xmlns:svg="http://www.w3.org/2000/svg" xmlns:xlink="http://www.w3.org/1999/xlink" id="Layer_1" width="32" height="32" x="0" y="0" enable-background="new -.5 -.5 32 32" version="1.1" viewBox="-0.5 -0.5 32 32" xml:space="preserve"><circle id="path4136" cx="15.5" cy="15.5" r="15.95" fill="#FFF"/><path id="NXT_alt" fill="#002E43" d="M24.875,21.58l-12.186-8.075H9.438	c-1.128,0-2.043-0.915-2.043-2.043c0-1.128,0.915-2.042,2.043-2.042h4.483l12.185,8.075h5.242c0.01,0,0.02,0.002,0.029,0.002	c0.08-0.654,0.123-1.32,0.123-1.996s-0.043-1.341-0.123-1.995h-6.081c-1.128,0-2.043-0.915-2.043-2.043	c0-1.128,0.915-2.042,2.043-2.042h5.007C27.909,3.599,22.184-0.5,15.5-0.5C8.273-0.5,2.167,4.291,0.181,10.87l9.997,6.624h3.154	c1.128,0,2.043,0.915,2.043,2.043c0,1.129-0.915,2.043-2.043,2.043H8.947l-9.445-6.259C-0.499,15.381-0.5,15.44-0.5,15.5	c0,8.836,7.164,16,16,16c6.684,0,12.409-4.099,14.803-9.92H24.875L24.875,21.58z"/></svg>