<svg xmlns="http://www.w3.org/2000/svg" xmlns:svg="http://www.w3.org/2000/svg" xmlns:xlink="http://www.w3.org/1999/xlink" id="Layer_1" width="32" height="32" x="0" y="0" enable-background="new -.5 -.5 32 32" version="1.1" viewBox="-0.5 -0.5 32 32" xml:space="preserve"><circle id="path4755" cx="15.5" cy="15.5" r="15.5" fill="#FFF"/><path id="OPAL_alt" fill="#7193AA" d="M15.5-0.5c-8.836,0-16,7.164-16,16c0,8.836,7.164,16,16,16	c8.836,0,16-7.164,16-16C31.5,6.664,24.336-0.5,15.5-0.5z M11.322,8.25l3.901,2.252l-3.901,2.252V8.25z M6.993,10.755l3.901,2.253	l-3.901,2.252V10.755z M6.993,15.769l3.901,2.253l-3.901,2.252V15.769z M11.024,22.78l-3.901-2.253l3.901-2.252V22.78z M11.024,17.768l-3.901-2.253l3.901-2.252V17.768z M11.024,12.754l-3.901-2.252l3.901-2.252V12.754L11.024,12.754z M11.322,18.245	l3.901,2.253l-3.901,2.252V18.245z M15.344,25.246l-3.901-2.252l3.901-2.253V25.246z M15.344,10.259l-3.901-2.253l3.901-2.252	V10.259z M19.976,8.25l3.901,2.252l-3.901,2.252V8.25z M19.976,13.262l3.901,2.252l-3.901,2.253V13.262z M15.656,5.754l3.901,2.252	l-3.901,2.253V5.754z M15.656,25.246V20.74l3.901,2.254L15.656,25.246z M19.678,22.75l-3.901-2.252l3.901-2.253V22.75z M19.678,12.754l-3.901-2.252l3.901-2.252V12.754z M19.976,22.78v-4.505l3.901,2.252L19.976,22.78z M24.007,20.273l-3.901-2.252	l3.901-2.253V20.273z M24.007,15.261l-3.901-2.252l3.901-2.253V15.261z"/></svg>