<svg xmlns="http://www.w3.org/2000/svg" xmlns:svg="http://www.w3.org/2000/svg" xmlns:xlink="http://www.w3.org/1999/xlink" id="Layer_1" width="32" height="32" x="0" y="0" enable-background="new -.5 -.5 32 32" version="1.1" viewBox="-0.5 -0.5 32 32" xml:space="preserve"><circle id="path4744" cx="15.5" cy="15.5" r="15.5" fill="#FFF"/><g id="POT_alt" transform="matrix(0.14139147,0,0,0.14139147,-0.06433312,-0.06432312)"><path id="path4" fill="#105B2F" d="M126.698,70.949c-9.324,0-34.023,0-34.023,0l-1.82,9.431h30 l-2.694,14.256H88.103l-2.21,11.455c7.915,0,26.695,0,36.199,0c12.239,0,23.58-8.084,25.037-20.883 C148.593,72.407,136.015,70.949,126.698,70.949z"/><path id="path6" fill="#105B2F" d="M110.08-3.081C47.584-3.081-3.081,47.584-3.081,110.08 c0,62.493,50.665,113.161,113.161,113.161c62.493,0,113.161-50.668,113.161-113.161C223.241,47.584,172.573-3.081,110.08-3.081z M168.719,86.942c-4.407,36.247-39.776,39.245-55.047,39.245c-11.158,0-25.006,0-31.661,0l-8.309,43.064H52.477L66.999,94.64 H54.611l2.694-14.259h12.47l5.833-29.979c0,0,35.594,0,43.119,0C147.557,50.402,172.822,53.088,168.719,86.942z"/></g></svg>