<svg xmlns="http://www.w3.org/2000/svg" xmlns:svg="http://www.w3.org/2000/svg" xmlns:xlink="http://www.w3.org/1999/xlink" id="Layer_1" width="32" height="32" x="0" y="0" enable-background="new -.5 -.5 32 32" version="1.1" viewBox="-0.5 -0.5 32 32" xml:space="preserve"><circle id="path4142" cx="15.5" cy="15.5" r="15.5" fill="#FFF"/><g id="PPC_1_" transform="matrix(0.14109472,0,0,0.14109472,0,-3.0656e-7)"><path id="path4" fill="#F3AE50" d="M141.887,66.559c-13.095-8.264-30.433-8.364-30.433-8.364 s-0.329,21.612,0.879,30.831c1.211,9.219,5.371,13.68,8.617,16.4c3.246,2.72,12.998,6.769,16.701,4.43 c3.703-2.343,4.001-13.5,2.187-19.923c-1.813-6.423-5.662-11.334-8.458-14.282c-2.796-2.945-10.88-9.143-10.88-9.143 s9.288,4.457,14.126,8.385c4.838,3.931,11.261,12.621,12.313,19.802c1.066,7.181-1.329,15.161-1.329,15.161 s10.576-7.326,10.576-17.905C156.186,81.367,154.982,74.819,141.887,66.559z"/><rect id="rect6" width="2.281" height="86.354" x="90.344" y="58.142" fill="#F3AE50"/><path id="path8" fill="#F3AE50" d="M109.855-3.544C47.228-3.544-3.544,47.228-3.544,109.855 c0,62.624,50.771,113.399,113.399,113.399c62.624,0,113.399-50.775,113.399-113.399C223.254,47.228,172.479-3.544,109.855-3.544z M148.836,124.494c-8.264,5.039-37.988,3.627-37.988,3.627h-0.087v16.376h3.904v15.262h-3.904v22.577H92.624v-22.577h-2.281v22.577 H72.207v-22.577h-3.904v-15.262h3.904V42.878c0,0,48.612,0,52.246,0c8.063,0,15.414,1.007,25.394,7.056 c9.967,6.042,19.546,17.331,19.546,37.278C169.392,107.163,157.1,119.455,148.836,124.494z"/></g></svg>