<svg xmlns="http://www.w3.org/2000/svg" xmlns:svg="http://www.w3.org/2000/svg" xmlns:xlink="http://www.w3.org/1999/xlink" id="Layer_1" width="32" height="32" x="0" y="0" enable-background="new -.5 -.5 32 32" version="1.1" viewBox="-0.5 -0.5 32 32" xml:space="preserve"><circle id="path4759" cx="15.5" cy="15.5" r="15.5" fill="#FFF"/><g id="QRK" transform="matrix(0.1411221,0,0,0.1411221,0,-0.00323581)"><path id="path4" fill="#4D4D4D" d="M109.834-3.52C47.219-3.52-3.543,47.241-3.543,109.857 c0,62.612,50.762,113.377,113.377,113.377c62.612,0,113.377-50.765,113.377-113.377C223.211,47.241,172.446-3.52,109.834-3.52z M169.069,109.539c-3.197,1.841-6.588,2.983-10.02,3.533c-0.007,0.038-0.014,0.073-0.014,0.111 c-8.359,0.716-16.248,5.339-20.774,13.151c-4.629,7.979-4.636,17.362-0.851,25.071c1.114,3.1,1.765,6.429,1.765,9.909 c0,16.207-13.134,29.348-29.337,29.348c-16.21,0-29.348-13.141-29.348-29.348c0-3.668,0.706-7.169,1.938-10.408 c-0.031-0.014-0.059-0.042-0.087-0.062c3.578-7.605,3.515-16.767-0.986-24.607c-4.598-7.993-12.726-12.698-21.293-13.273 c-3.242-0.581-6.446-1.682-9.463-3.418c-14.034-8.103-18.847-26.054-10.743-40.084c8.103-14.037,26.05-18.843,40.087-10.743 c3.187,1.841,5.868,4.211,8.062,6.906c0.007-0.003,0.017-0.007,0.028-0.014c4.806,6.882,12.771,11.394,21.805,11.394 c9.02,0,16.992-4.512,21.801-11.394c0.007,0.007,0.007,0.007,0.014,0.01c2.194-2.699,4.879-5.065,8.062-6.91 c14.048-8.103,31.998-3.294,40.094,10.743C187.905,83.485,183.103,101.432,169.069,109.539z"/><path id="path6" fill="#4D4D4D" d="M109.838,88.038c-12.055,0-21.822,9.764-21.822,21.815 s9.768,21.822,21.822,21.822c12.044,0,21.822-9.771,21.822-21.822S121.889,88.038,109.838,88.038z"/></g></svg>