<svg xmlns="http://www.w3.org/2000/svg" xmlns:svg="http://www.w3.org/2000/svg" xmlns:xlink="http://www.w3.org/1999/xlink" id="Layer_1" width="32" height="32" x="0" y="0" enable-background="new -.5 -.5 32 32" version="1.1" viewBox="-0.5 -0.5 32 32" xml:space="preserve"><circle id="path9949" cx="15.5" cy="15.5" r="15.5" fill="#FFF"/><g id="SDC_alt" transform="matrix(0.14097662,0,0,0.14097662,0.02974607,0.02975607)"><path id="path4" fill="#E41D38" d="M58.42,78.91v59.261l51.316,29.627l51.316-29.627V78.91 l-51.316-29.627L58.42,78.91z M149.802,117.564l-13.757-7.793V93.35l-26.309-15.188L91.189,88.868l58.614,33.157v9.649 l-40.066,23.13l-40.07-23.13V98.348l13.761,7.793v17.588l26.309,15.191l19.534-11.284L69.666,93.89v-8.482l40.07-23.137 l40.066,23.137V117.564z"/><path id="path6" fill="#E41D38" d="M109.736-3.758c-62.68,0-113.494,50.814-113.494,113.494 c0,62.676,50.814,113.494,113.494,113.494c62.676,0,113.494-50.817,113.494-113.494C223.23,47.056,172.412-3.758,109.736-3.758z M174.158,146.935l-64.422,37.192l-64.422-37.192V72.541l64.422-37.195l64.422,37.195V146.935z"/></g></svg>