<svg xmlns="http://www.w3.org/2000/svg" xmlns:svg="http://www.w3.org/2000/svg" xmlns:xlink="http://www.w3.org/1999/xlink" id="Layer_1" width="32" height="32" x="0" y="0" enable-background="new -.5 -.5 32 32" version="1.1" viewBox="-0.5 -0.5 32 32" xml:space="preserve"><circle id="path4201" cx="15.5" cy="15.5" r="15.5" fill="#FFF"/><path id="VIOR" fill="#00A7E1" d="M15.5-0.5c-8.836,0-16,7.164-16,16c0,8.836,7.164,16,16,16	c8.836,0,16-7.164,16-16C31.5,6.664,24.336-0.5,15.5-0.5z M4.815,15.518c0-5.901,4.784-10.685,10.685-10.685	c1.006,0,1.979,0.139,2.9,0.399c2.693,1.116,4.591,3.752,4.591,6.818c0,0.879-0.157,1.722-0.442,2.505	c-1.461-2.321-4.059-3.866-7.021-3.866c-5.018,0-8.272,4.274-8.272,8.198c0,1.987,0.714,3.809,1.9,5.228	C6.523,22.17,4.815,19.043,4.815,15.518z M18.873,11.717L15.5,19.914l-3.373-8.197h1.766l1.607,4.287l1.607-4.287H18.873z M15.5,26.203c-0.623,0-1.233-0.055-1.827-0.156c-3.222-0.818-5.609-3.719-5.609-7.159c0-0.878,0.157-1.722,0.443-2.503	c1.461,2.319,4.058,3.864,7.021,3.864c4.365,0,8.271-3.669,8.271-8.198c0-1.827-0.604-3.513-1.624-4.876	c2.444,1.958,4.009,4.967,4.009,8.343C26.185,21.419,21.4,26.203,15.5,26.203z"/></svg>