<svg xmlns="http://www.w3.org/2000/svg" xmlns:svg="http://www.w3.org/2000/svg" xmlns:xlink="http://www.w3.org/1999/xlink" id="Layer_1" width="32" height="32" x="0" y="0" enable-background="new -.5 -.5 32 32" version="1.1" viewBox="-0.5 -0.5 32 32" xml:space="preserve"><circle id="path10179" cx="15.5" cy="15.5" r="15.5" fill="#FFF"/><path id="XCP_alt" fill="#EC1550" d="M15.5-0.5c-8.836,0-16,7.164-16,16c0,8.836,7.164,16,16,16	c8.836,0,16-7.164,16-16C31.5,6.664,24.336-0.5,15.5-0.5z M25.558,17.345L22.6,20.303h-2.811c-0.318,0.001-0.576,0.258-0.576,0.576	l-0.002,0.002l-0.002,1.687c-0.002,0.185-0.15,0.333-0.334,0.333H16.73l0,0c-0.185,0-0.334-0.15-0.334-0.335v-0.001v-4.102	l1.756-1.757h0.002c0.061-0.058,0.143-0.095,0.232-0.095c0.094,0,0.178,0.039,0.238,0.101h0.001l0.776,0.775h2.03l1.31-1.31v-1.719	l-1.349-1.349h-1.807l-7.183,7.183H8.217l-2.982-2.982v-4.023l2.986-2.986h4.083l1.77,1.77v0c0.059,0.061,0.095,0.143,0.095,0.233	c0,0.092-0.038,0.176-0.098,0.237v0.001l-1.501,1.498c-0.062,0.07-0.151,0.115-0.251,0.115c-0.096,0-0.181-0.041-0.242-0.104	l-0.938-0.935h-1.75L8.05,14.453v1.691l1.333,1.333h1.855l7.183-7.183h4.139l2.998,2.998V17.345L25.558,17.345z"/></svg>