<svg xmlns="http://www.w3.org/2000/svg" xmlns:svg="http://www.w3.org/2000/svg" xmlns:xlink="http://www.w3.org/1999/xlink" id="Layer_1" width="32" height="32" x="0" y="0" enable-background="new -.5 -.5 32 32" version="1.1" viewBox="-0.5 -0.5 32 32" xml:space="preserve"><circle id="path4140" cx="15.5" cy="15.5" r="15.95" fill="#FFF"/><g id="XMR_2_" transform="matrix(0.14115945,0,0,0.14116007,-0.01171623,-0.01199861)"><path id="path4" fill="#F60" d="M36.179,145.476V50.328l73.744,73.744l73.672-73.671v95.076 h33.934c3.701-11.194,5.708-23.148,5.708-35.587c0-62.599-50.745-113.347-113.347-113.347C47.289-3.457-3.459,47.291-3.459,109.889 c0,12.439,2.006,24.393,5.707,35.587H36.179L36.179,145.476z"/><path id="path6" fill="#F60" d="M158.993,168.534v-60.153l-49.489,49.492l-49.15-49.143 v59.804H12.875c19.866,32.785,55.878,54.702,97.014,54.702s77.151-21.917,97.014-54.702H158.993L158.993,168.534z"/></g></svg>