<svg xmlns="http://www.w3.org/2000/svg" xmlns:svg="http://www.w3.org/2000/svg" xmlns:xlink="http://www.w3.org/1999/xlink" id="Layer_1" width="32" height="32" x="0" y="0" enable-background="new -.5 -.5 32 32" version="1.1" viewBox="-0.5 -0.5 32 32" xml:space="preserve"><circle id="path4155" cx="15.5" cy="15.5" r="15.5" fill="#FFF"/><path id="YBC_alt" fill="#F3AE50" d="M15.5-0.5c-8.836,0-16,7.164-16,16c0,8.836,7.164,16,16,16	c8.836,0,16-7.164,16-16C31.5,6.664,24.336-0.5,15.5-0.5z M17.99,25.426c-0.797,0.2-1.631,0.307-2.49,0.307	c-5.651,0-10.232-4.582-10.232-10.232c0-4.246,2.586-7.888,6.269-9.436v11.883l1.52,1.516h4.934V25.426z M19.463,24.936V13.053	l-1.52-1.516h-4.934V5.574c0.797-0.199,1.631-0.306,2.491-0.306c5.65,0,10.232,4.581,10.232,10.232	C25.732,19.746,23.146,23.388,19.463,24.936z"/></svg>